{"title":"The.Ridiculous.6.2015.WEBRip.480p.x264.AAC-VYTO [P2PDL]","uid":12968407,"size":477186516,"categoryP":"video","categoryS":"movies","magnet":"?xt=urn:btih:7e816f6c0dfc2a6cb67bb80ce09d2cf5deaa2ee3&amp;dn=The.Ridiculous.6.2015.WEBRip.480p.x264.AAC-VYTO+%5BP2PDL%5D&amp;tr=udp%3A%2F%2Ftracker.leechers-paradise.org%3A6969&amp;tr=udp%3A%2F%2Fzer0day.ch%3A1337&amp;tr=udp%3A%2F%2Fopen.demonii.com%3A1337&amp;tr=udp%3A%2F%2Ftracker.coppersurfer.tk%3A6969&amp;tr=udp%3A%2F%2Fexodus.desync.com%3A6969","seeders":1,"leechers":0,"uploader":"VYTOP2PDL","files":7,"time":1449913516,"description":"____    ____ ____    ____ .___________.  ______   \r\n     /   /      /   / |           | /  __    \r\n    /   /      /   /  `---|  |----`|  |  |  | \r\n        /     _    _/       |  |     |  |  |  | \r\n       /        |  |         |  |     |  `--'  | \r\n    __/         |__|         |__|      ______/  \r\n                                                  \r\nPresenting Small Encodes with quality for years!\r\n                                                                                                   \r\n                                                                                                   \r\n\r\nThe.Ridiculous.6.2015.WEBRip.480p.x264.AAC-VYTO\r\n\r\n\r\nGenre: Comedy, Western    \nhttp://www.imdb.com/title/tt2479478/\r\n\r\n\r\nFormat                                   : MPEG-4\r\nFile size                                : 451 MiB\r\nDuration                                 : 1h 59mn\r\nOverall bit rate                         : 530 Kbps\r\n\r\nVideo\r\nFormat                                   : AVC\r\nBit rate                                 : 487 Kbps\r\nWidth                                    : 720 pixels\r\nHeight                                   : 304 pixels\r\nDisplay aspect ratio                     : 2.35:1\r\nFrame rate mode                          : Constant\r\nFrame rate                               : 23.976 fps\r\nBit depth                                : 8 bits\r\nStream size                              : 414 MiB (92%)\r\nWriting library                          : x264\r\n\r\nAudio\r\nFormat                                   : AAC\r\nBit rate mode                            : Variable\r\nBit rate                                 : 40.0 Kbps\r\nChannel(s)                               : 2 channels\r\nChannel positions                        : Front: L R\r\nSampling rate                            : 48.0 KHz \r\nStream size                              : 34.1 MiB (8%)\r\nLanguage                                 : English\r\n\r\nSubtitle                                 : Yes (English)\r\n\r\nScreen Shots: (Click to view)\r\n \nhttp://ititli.com/Nh \nhttp://ititli.com/Ns \nhttp://ititli.com/NY \nhttp://ititli.com/N4 \nhttp://ititli.com/NK \nhttp://ititli.com/NV \nhttp://ititli.com/Nt \nhttp://ititli.com/NL \nhttp://ititli.com/Nd\r\n\r\n----------------------------------------------------------------------------------------------------\r\n\r\n\r\nEncoder Notes: Looking For Early Access To Anything You Can Provide WEBDL, DVDScr, DVDR, BluRay,\r\nDirect Audio, Music Releases and Seedboxes. If You Got anything to offer please contact us.\r\n\r\nSupport us by donating BC - 1FgwdzPsd1y25Gea8wP1qni35uGCtmkRCD\r\n\r\nSend some love!\r\nFind us and join us!","torrent":{"xt":"urn:btih:7e816f6c0dfc2a6cb67bb80ce09d2cf5deaa2ee3","amp;dn":"The.Ridiculous.6.2015.WEBRip.480p.x264.AAC-VYTO+%5BP2PDL%5D","amp;tr":["udp%3A%2F%2Ftracker.leechers-paradise.org%3A6969","udp%3A%2F%2Fzer0day.ch%3A1337","udp%3A%2F%2Fopen.demonii.com%3A1337","udp%3A%2F%2Ftracker.coppersurfer.tk%3A6969","udp%3A%2F%2Fexodus.desync.com%3A6969"],"infoHash":"7e816f6c0dfc2a6cb67bb80ce09d2cf5deaa2ee3","infoHashBuffer":{"type":"Buffer","data":[126,129,111,108,13,252,42,108,182,123,184,12,224,157,44,245,222,170,46,227]},"announce":[],"urlList":[]}}